<?xml version="1.0" standalone="no"?>
<!DOCTYPE svg PUBLIC "-//W3C//DTD SVG 20010904//EN"
 "http://www.w3.org/TR/2001/REC-SVG-20010904/DTD/svg10.dtd">
<svg version="1.0" xmlns="http://www.w3.org/2000/svg"
 width="360.000000pt" height="360.000000pt" viewBox="0 0 360.000000 360.000000"
 preserveAspectRatio="xMidYMid meet">
<metadata>
Created by potrace 1.14, written by Peter Selinger 2001-2017
</metadata>
<g transform="translate(0.000000,360.000000) scale(0.100000,-0.100000)"
fill="#000000" stroke="none">
<path d="M2653 3311 c-12 -20 -75 -20 -99 0 -13 10 -17 10 -24 -1 -10 -17 -68
-17 -97 -2 -16 9 -23 8 -32 -2 -13 -15 -78 -11 -99 6 -10 9 -15 9 -22 -1 -9
-16 -88 -17 -103 -2 -15 15 -27 14 -27 -2 0 -16 -84 -15 -104 2 -9 8 -15 8
-18 2 -4 -13 -87 -21 -94 -9 -3 5 -10 6 -15 3 -5 -4 -9 0 -9 7 0 11 -2 10 -9
0 -10 -17 -96 -18 -115 -2 -9 7 -15 7 -18 1 -6 -18 -88 -20 -98 -2 -7 12 -11
13 -24 2 -18 -15 -76 -20 -93 -8 -7 5 -25 6 -40 2 -43 -12 -75 -12 -87 0 -12
11 -22 12 -46 3 -36 -14 -60 -15 -79 -2 -15 11 -20 11 -24 1 -4 -9 -6 -9 -6 1
-1 10 -5 10 -22 -1 -19 -14 -42 -14 -79 1 -24 9 -35 8 -41 -1 -10 -14 -51 -15
-74 -3 -30 15 -46 16 -51 1 -6 -14 -57 -13 -77 2 -15 11 -26 11 -52 -4 -11 -6
-29 -9 -41 -7 -12 2 -28 -2 -38 -9 -15 -11 -16 -120 -17 -1454 0 -1157 3
-1446 13 -1462 7 -12 24 -21 38 -22 78 -3 1948 -5 1960 -2 9 3 21 13 27 23 13
20 14 56 14 505 0 165 0 772 0 1348 0 815 -3 1052 -12 1063 -7 8 -24 14 -38
14 -57 -4 -90 1 -104 14 -11 12 -15 12 -24 -3z"/>
</g>
</svg>
